<?xml version="1.0" encoding="UTF-8" standalone="no"?>
<!DOCTYPE svg PUBLIC "-//W3C//DTD SVG 1.1//EN" "http://www.w3.org/Graphics/SVG/1.1/DTD/svg11.dtd">
<svg width="100%" height="100%" viewBox="0 0 207 65" version="1.1" xmlns="http://www.w3.org/2000/svg" xmlns:xlink="http://www.w3.org/1999/xlink" xml:space="preserve" xmlns:serif="http://www.serif.com/" style="fill-rule:evenodd;clip-rule:evenodd;stroke-linecap:round;stroke-miterlimit:1.5;">
    <g transform="matrix(1.06196e-17,-0.17343,0.241905,1.48124e-17,-266.797,210.293)">
        <path d="M1027.56,1511.81C1027.56,1511.81 1021.76,1482.87 1007.86,1464.78C967.915,1412.8 1027.56,1371.76 1027.56,1371.76C1027.56,1371.76 1087.2,1412.8 1047.26,1464.78C1033.36,1482.87 1027.56,1511.81 1027.56,1511.81Z" style="fill:none;stroke:rgb(175,150,92);stroke-width:4.43px;"/>
    </g>
    <g transform="matrix(0.0312175,0,0,0.0312175,72.7316,-12.5638)">
        <path d="M879.536,1428.27C897.758,1426.77 934.361,1423.41 959.72,1418.73C960.418,1418.43 961.101,1418.11 961.768,1417.77C974.143,1410.88 980.649,1396.5 977.329,1382.44L976.621,1379.48C976.621,1379.48 977.068,1379.59 977.945,1379.67C977.923,1379.54 977.907,1379.48 977.907,1379.48L978.927,1379.73C979.264,1379.74 979.638,1379.74 980.047,1379.74C995.073,1383.26 1010.44,1375.37 1016.34,1361.11C1022.52,1329.88 1026.27,1283.39 1026.27,1283.39C1026.27,1283.39 1026.5,1286.15 1026.92,1290.78C1027.34,1286.15 1027.56,1283.39 1027.56,1283.39C1027.56,1283.39 1031.34,1330.17 1037.55,1361.4C1043.02,1374.56 1056.64,1382.4 1070.76,1380.53C1071.29,1380.47 1071.79,1380.41 1072.26,1380.35L1075.92,1379.48C1075.92,1379.48 1075.9,1379.58 1075.85,1379.77C1076.74,1379.6 1077.21,1379.48 1077.21,1379.48L1076.93,1380.64C1076.35,1381.03 1075.79,1381.44 1075.26,1381.87C1074.62,1383.98 1073.53,1387.37 1071.87,1391.61C1067.41,1400.23 1070.69,1410.83 1079.23,1415.43C1107.62,1423.29 1176.07,1428.45 1184.6,1429.07C1185.18,1429.11 1185.48,1429.13 1185.48,1429.13C1185.48,1429.13 1109.67,1434.51 1079.96,1442.98C1072.88,1446.82 1069.56,1455.19 1072.08,1462.84C1073.98,1471.12 1074.01,1475.58 1074.01,1475.58C1074.01,1475.58 1073.57,1475.58 1072.72,1475.54C1072.72,1475.57 1072.72,1475.58 1072.72,1475.58C1072.72,1475.58 1070.81,1475.57 1067.09,1475.74C1062.55,1475.52 1058.12,1476.28 1054.06,1477.87C1046.73,1481.06 1040.69,1486.96 1037.41,1494.63C1031.46,1525.13 1027.56,1571.69 1027.56,1571.69C1027.56,1571.69 1027.34,1569.06 1026.92,1564.64C1026.49,1569.06 1026.27,1571.69 1026.27,1571.69C1026.27,1571.69 1022.38,1525.22 1016.5,1494.7C1013.42,1487.49 1007.92,1481.85 1001.21,1478.54C996.532,1476.44 991.31,1475.46 985.953,1475.86C982.741,1475.57 981.111,1475.58 981.111,1475.58C981.111,1475.58 981.111,1475.57 981.111,1475.54C980.257,1475.58 979.824,1475.58 979.824,1475.58C979.824,1475.58 979.834,1474.06 979.509,1471.07C980.474,1457.77 972.961,1445.3 960.751,1439.94C926.333,1433.24 868.351,1429.13 868.351,1429.13C868.351,1429.13 872.62,1428.83 879.536,1428.27Z" style="fill:rgb(175,150,92);"/>
    </g>
    <g transform="matrix(-0.0837655,-0.0837655,0.0837655,-0.0837655,61.4069,247.647)">
        <path d="M1029.8,1512.08C1029.79,1512.12 1029.79,1512.14 1029.78,1512.15C1029.78,1512.17 1029.78,1512.18 1029.78,1512.18L1025.33,1511.47C1025.33,1511.47 1025.34,1511.46 1025.34,1511.44C1025.4,1511.06 1029.08,1486.3 1001.87,1452.84C994.228,1443.44 991.541,1428.03 993.6,1410.79C996.619,1385.49 1009.75,1356.24 1031.23,1337.05L1033.04,1335.44L1034.52,1337.37C1034.52,1337.37 1057.3,1367.14 1064.67,1385.65C1068.05,1394.15 1066.63,1403.15 1063.03,1412.25C1057.96,1425.04 1048.54,1438.03 1043.78,1449.99C1036.72,1467.71 1030.12,1510 1029.8,1512.08ZM1028.34,1493.99C1031.04,1479.39 1035.24,1459.26 1039.59,1448.33C1043.58,1438.31 1050.81,1427.57 1056.06,1416.84C1060.98,1406.76 1064.23,1396.71 1060.49,1387.32C1054.4,1372.03 1037.53,1348.9 1032.43,1342.07C1012.84,1360.51 1000.89,1387.71 998.07,1411.32C996.18,1427.16 998.345,1441.37 1005.36,1450C1019.66,1467.58 1025.8,1482.93 1028.34,1493.99Z" style="fill:rgb(175,150,92);"/>
    </g>
    <g transform="matrix(0.604762,0,0,0.282222,-528.571,-395.25)">
        <path d="M956.693,1511.81L956.693,1516.54L874.016,1514.17L956.693,1511.81Z" style="fill:rgb(175,150,92);"/>
    </g>
    <g transform="matrix(0.15,0,0,0.15,-90.5512,-191.145)">
        <path d="M1003.94,1488.19C1003.94,1488.19 988.189,1476.38 980.315,1476.38C972.441,1476.38 956.693,1488.19 956.693,1488.19C956.693,1488.19 972.441,1500 980.315,1500C988.189,1500 1003.94,1488.19 1003.94,1488.19Z" style="fill:rgb(175,150,92);"/>
    </g>
    <g transform="matrix(-0.604762,0,0,0.282222,735.363,-395.25)">
        <path d="M956.693,1511.81L956.693,1516.54L874.016,1514.17L956.693,1511.81Z" style="fill:rgb(175,150,92);"/>
    </g>
    <g transform="matrix(-0.15,0,0,0.15,297.343,-191.145)">
        <path d="M1003.94,1488.19C1003.94,1488.19 988.189,1476.38 980.315,1476.38C972.441,1476.38 956.693,1488.19 956.693,1488.19C956.693,1488.19 972.441,1500 980.315,1500C988.189,1500 1003.94,1488.19 1003.94,1488.19Z" style="fill:rgb(175,150,92);"/>
    </g>
    <g transform="matrix(1,0,0,1,-64.9606,-2.49966)">
        <path d="M165.5,38.5C163.3,42.751 162.184,45.022 159,46.5" style="fill:none;stroke:rgb(175,150,92);stroke-width:0.27px;"/>
    </g>
    <g transform="matrix(1,0,0,1,-64.9606,-2.49966)">
        <path d="M164,34.5C155.193,35.283 146.76,35.608 139.5,34.5" style="fill:none;stroke:rgb(175,150,92);stroke-width:0.27px;"/>
    </g>
    <g transform="matrix(-1.06196e-17,-0.17343,-0.241905,1.48124e-17,476.376,210.293)">
        <path d="M1027.56,1511.81C1027.56,1511.81 1021.76,1482.87 1007.86,1464.78C967.915,1412.8 1027.56,1371.76 1027.56,1371.76C1027.56,1371.76 1087.2,1412.8 1047.26,1464.78C1033.36,1482.87 1027.56,1511.81 1027.56,1511.81Z" style="fill:none;stroke:rgb(175,150,92);stroke-width:4.43px;"/>
    </g>
    <g transform="matrix(0.0837655,-0.0837655,-0.0837655,-0.0837655,148.172,247.647)">
        <path d="M1029.78,1512.15C1029.79,1512.14 1029.79,1512.12 1029.8,1512.08C1030.12,1510 1036.72,1467.71 1043.78,1449.99C1048.54,1438.03 1057.96,1425.04 1063.03,1412.25C1066.63,1403.15 1068.05,1394.15 1064.67,1385.65C1057.3,1367.14 1034.52,1337.37 1034.52,1337.37L1033.04,1335.44L1031.23,1337.05C1009.75,1356.24 996.619,1385.49 993.6,1410.79C991.541,1428.03 994.228,1443.44 1001.87,1452.84C1029.08,1486.3 1025.4,1511.06 1025.34,1511.44C1025.34,1511.46 1025.33,1511.47 1025.33,1511.47L1029.78,1512.18C1029.78,1512.18 1029.78,1512.17 1029.78,1512.15ZM1028.34,1493.99C1025.8,1482.93 1019.66,1467.58 1005.36,1450C998.345,1441.37 996.18,1427.16 998.07,1411.32C1000.89,1387.71 1012.84,1360.51 1032.43,1342.07C1037.53,1348.9 1054.4,1372.03 1060.49,1387.32C1064.23,1396.71 1060.98,1406.76 1056.06,1416.84C1050.81,1427.57 1043.58,1438.31 1039.59,1448.33C1035.24,1459.26 1031.04,1479.39 1028.34,1493.99Z" style="fill:rgb(175,150,92);"/>
    </g>
    <g transform="matrix(-1,0,0,1,274.539,-2.49966)">
        <path d="M165.5,38.5C163.3,42.751 162.184,45.022 159,46.5" style="fill:none;stroke:rgb(175,150,92);stroke-width:0.27px;"/>
    </g>
    <g transform="matrix(-0.0837655,0.0837655,0.0837655,0.0837655,61.4069,-183.482)">
        <path d="M1025.34,1511.44C1025.34,1511.46 1025.33,1511.47 1025.33,1511.47L1029.78,1512.18C1029.78,1512.18 1029.78,1512.17 1029.78,1512.15C1029.79,1512.14 1029.79,1512.12 1029.8,1512.08C1030.12,1510 1036.72,1467.71 1043.78,1449.99C1048.54,1438.03 1057.96,1425.04 1063.03,1412.25C1066.63,1403.15 1068.05,1394.15 1064.67,1385.65C1057.3,1367.14 1034.52,1337.37 1034.52,1337.37L1033.04,1335.44L1031.23,1337.05C1009.75,1356.24 996.619,1385.49 993.6,1410.79C991.541,1428.03 994.228,1443.44 1001.87,1452.84C1029.08,1486.3 1025.4,1511.06 1025.34,1511.44ZM1028.34,1493.99C1025.8,1482.93 1019.66,1467.58 1005.36,1450C998.345,1441.37 996.18,1427.16 998.07,1411.32C1000.89,1387.71 1012.84,1360.51 1032.43,1342.07C1037.53,1348.9 1054.4,1372.03 1060.49,1387.32C1064.23,1396.71 1060.98,1406.76 1056.06,1416.84C1050.81,1427.57 1043.58,1438.31 1039.59,1448.33C1035.24,1459.26 1031.04,1479.39 1028.34,1493.99Z" style="fill:rgb(175,150,92);"/>
    </g>
    <g transform="matrix(1,0,0,-1,-64.9606,66.665)">
        <path d="M165.5,38.5C163.3,42.751 162.184,45.022 159,46.5" style="fill:none;stroke:rgb(175,150,92);stroke-width:0.27px;"/>
    </g>
    <g transform="matrix(0.0837655,0.0837655,-0.0837655,0.0837655,148.172,-183.482)">
        <path d="M1025.34,1511.44C1025.4,1511.06 1029.08,1486.3 1001.87,1452.84C994.228,1443.44 991.541,1428.03 993.6,1410.79C996.619,1385.49 1009.75,1356.24 1031.23,1337.05L1033.04,1335.44L1034.52,1337.37C1034.52,1337.37 1057.3,1367.14 1064.67,1385.65C1068.05,1394.15 1066.63,1403.15 1063.03,1412.25C1057.96,1425.04 1048.54,1438.03 1043.78,1449.99C1036.72,1467.71 1030.12,1510 1029.8,1512.08C1029.79,1512.12 1029.79,1512.14 1029.78,1512.15C1029.78,1512.17 1029.78,1512.18 1029.78,1512.18L1025.33,1511.47C1025.33,1511.47 1025.34,1511.46 1025.34,1511.44ZM1028.34,1493.99C1031.04,1479.39 1035.24,1459.26 1039.59,1448.33C1043.58,1438.31 1050.81,1427.57 1056.06,1416.84C1060.98,1406.76 1064.23,1396.71 1060.49,1387.32C1054.4,1372.03 1037.53,1348.9 1032.43,1342.07C1012.84,1360.51 1000.89,1387.71 998.07,1411.32C996.18,1427.16 998.345,1441.37 1005.36,1450C1019.66,1467.58 1025.8,1482.93 1028.34,1493.99Z" style="fill:rgb(175,150,92);"/>
    </g>
    <g transform="matrix(-1,0,0,-1,274.539,66.665)">
        <path d="M165.5,38.5C163.3,42.751 162.184,45.022 159,46.5" style="fill:none;stroke:rgb(175,150,92);stroke-width:0.27px;"/>
    </g>
    <g transform="matrix(-1,0,0,1,274.539,-2.49966)">
        <path d="M164,34.5C155.193,35.283 146.76,35.608 139.5,34.5" style="fill:none;stroke:rgb(175,150,92);stroke-width:0.27px;"/>
    </g>
    <g transform="matrix(0.17343,-2.49872e-18,-3.48527e-18,0.184986,-73.4207,-253.424)">
        <path d="M1027.56,1511.81C1027.56,1511.81 1021.76,1482.87 1007.86,1464.78C967.915,1412.8 1027.56,1371.76 1027.56,1371.76C1027.56,1371.76 1087.2,1412.8 1047.26,1464.78C1033.36,1482.87 1027.56,1511.81 1027.56,1511.81Z" style="fill:none;stroke:rgb(175,150,92);stroke-width:5.21px;"/>
    </g>
    <g transform="matrix(0.17343,-1.87404e-17,-2.61395e-17,-0.184986,-73.4207,317.591)">
        <path d="M1027.56,1511.81C1027.56,1511.81 1021.76,1482.87 1007.86,1464.78C967.915,1412.8 1027.56,1371.76 1027.56,1371.76C1027.56,1371.76 1087.2,1412.8 1047.26,1464.78C1033.36,1482.87 1027.56,1511.81 1027.56,1511.81Z" style="fill:none;stroke:rgb(175,150,92);stroke-width:5.21px;"/>
    </g>
</svg>
