<?xml version="1.0" encoding="UTF-8" standalone="no"?>
<!DOCTYPE svg PUBLIC "-//W3C//DTD SVG 1.1//EN" "http://www.w3.org/Graphics/SVG/1.1/DTD/svg11.dtd">
<svg width="100%" height="100%" viewBox="0 0 32 32" version="1.1" xmlns="http://www.w3.org/2000/svg" xmlns:xlink="http://www.w3.org/1999/xlink" xml:space="preserve" xmlns:serif="http://www.serif.com/" style="fill-rule:evenodd;clip-rule:evenodd;stroke-linejoin:round;stroke-miterlimit:2;">
    <path d="M28.167,7.012L27.589,7.589C27.264,7.914 26.736,7.914 26.411,7.589C26.086,7.264 26.086,6.736 26.411,6.411L28.411,4.411C28.568,4.254 28.778,4.167 29,4.167C29.222,4.167 29.432,4.254 29.589,4.411L31.589,6.411C31.914,6.736 31.914,7.264 31.589,7.589C31.264,7.914 30.736,7.914 30.411,7.589L29.833,7.012L29.833,24.988L30.411,24.411C30.736,24.086 31.264,24.086 31.589,24.411C31.914,24.736 31.914,25.264 31.589,25.589L29.589,27.589C29.432,27.746 29.222,27.833 29,27.833C28.778,27.833 28.568,27.746 28.411,27.589L26.411,25.589C26.086,25.264 26.086,24.736 26.411,24.411C26.736,24.086 27.264,24.086 27.589,24.411L28.167,24.988L28.167,7.012ZM18.17,14.633L24.614,26.519C24.753,26.777 24.747,27.089 24.598,27.341C24.448,27.594 24.177,27.749 23.884,27.75L1.003,27.833C0.714,27.834 0.445,27.685 0.292,27.439C0.139,27.194 0.125,26.886 0.255,26.627C0.255,26.627 6.59,13.957 6.593,13.951L11.255,4.627C11.394,4.349 11.676,4.172 11.986,4.167C12.297,4.162 12.585,4.33 12.733,4.603C12.733,4.603 18.168,14.629 18.17,14.633ZM7.466,15.932L2.351,26.162L22.484,26.088L16.936,15.854L12.445,15.835L10.693,18.462C10.542,18.689 10.29,18.828 10.017,18.833C9.744,18.839 9.486,18.711 9.326,18.49L7.466,15.932ZM16.031,14.184L12.03,6.804L8.305,14.253L9.97,16.542L11.307,14.538C11.462,14.305 11.724,14.165 12.004,14.167L16.031,14.184Z"/>
</svg>
