<?xml version="1.0" encoding="UTF-8" standalone="no"?>
<!DOCTYPE svg PUBLIC "-//W3C//DTD SVG 1.1//EN" "http://www.w3.org/Graphics/SVG/1.1/DTD/svg11.dtd">
<svg width="100%" height="100%" viewBox="0 0 32 32" version="1.1" xmlns="http://www.w3.org/2000/svg" xmlns:xlink="http://www.w3.org/1999/xlink" xml:space="preserve" xmlns:serif="http://www.serif.com/" style="fill-rule:evenodd;clip-rule:evenodd;stroke-linejoin:round;stroke-miterlimit:2;">
    <g transform="matrix(1.14286,0,0,1.14286,-2.28571,-2.28571)">
        <path d="M20.769,29.231C20.277,29.723 19.609,30 18.913,30C15.655,30 6.2,30 6.2,30C3.882,30 2,28.118 2,25.8L2,6.2C2,3.882 3.882,2 6.2,2L25.8,2C28.118,2 30,3.882 30,6.2L30,18.913C30,19.609 29.723,20.277 29.231,20.769C27.369,22.631 22.631,27.369 20.769,29.231ZM28.333,18L28.333,6.2C28.333,4.802 27.198,3.667 25.8,3.667L6.2,3.667C4.802,3.667 3.667,4.802 3.667,6.2L3.667,25.8C3.667,27.198 4.802,28.333 6.2,28.333L18,28.333L18,22.2C18,19.882 19.882,18 22.2,18L28.333,18ZM19.667,27.976L27.976,19.667L22.2,19.667C20.802,19.667 19.667,20.802 19.667,22.2L19.667,27.976Z"/>
    </g>
</svg>
