<?xml version="1.0" encoding="UTF-8" standalone="no"?>
<!DOCTYPE svg PUBLIC "-//W3C//DTD SVG 1.1//EN" "http://www.w3.org/Graphics/SVG/1.1/DTD/svg11.dtd">
<svg width="100%" height="100%" viewBox="0 0 32 32" version="1.1" xmlns="http://www.w3.org/2000/svg" xmlns:xlink="http://www.w3.org/1999/xlink" xml:space="preserve" xmlns:serif="http://www.serif.com/" style="fill-rule:evenodd;clip-rule:evenodd;stroke-linejoin:round;stroke-miterlimit:2;">
    <g transform="matrix(1.14286,0,0,1.03846,-2.28571,0.846154)">
        <path d="M24.268,4L27.637,4C28.941,4 30,5.165 30,6.6L30,27.4C30,28.835 28.941,30 27.637,30L4.363,30C3.059,30 2,28.835 2,27.4L2,6.6C2,5.165 3.059,4 4.363,4L7.732,4L7.732,1.037C7.732,0.594 8.059,0.235 8.462,0.235C8.864,0.235 9.191,0.594 9.191,1.037L9.191,4L22.809,4L22.809,1.037C22.809,0.594 23.136,0.235 23.538,0.235C23.941,0.235 24.268,0.594 24.268,1.037L24.268,4ZM28.542,9.938L28.542,6.6C28.542,6.051 28.137,5.605 27.637,5.605L24.268,5.605L24.268,6.963C24.268,7.406 23.941,7.765 23.538,7.765C23.136,7.765 22.809,7.406 22.809,6.963L22.809,5.605L9.191,5.605L9.191,6.963C9.191,7.406 8.864,7.765 8.462,7.765C8.059,7.765 7.732,7.406 7.732,6.963L7.732,5.605L4.363,5.605C3.863,5.605 3.458,6.051 3.458,6.6L3.458,9.938L28.542,9.938ZM3.458,11.543L3.458,27.4C3.458,27.949 3.863,28.395 4.363,28.395L27.637,28.395C28.137,28.395 28.542,27.949 28.542,27.4L28.542,11.543L3.458,11.543ZM10.268,23.545L10.268,24.772C10.268,25.216 9.941,25.575 9.538,25.575L7.385,25.575C6.982,25.575 6.655,25.216 6.655,24.772L6.655,23.545C6.655,23.102 6.982,22.743 7.385,22.743L9.538,22.743C9.941,22.743 10.268,23.102 10.268,23.545ZM25.345,16.434L25.345,17.619C25.345,18.062 25.018,18.422 24.615,18.422L22.462,18.422C22.059,18.422 21.732,18.062 21.732,17.619L21.732,16.434C21.732,15.991 22.059,15.631 22.462,15.631L24.615,15.631C25.018,15.631 25.345,15.991 25.345,16.434ZM25.345,23.545L25.345,24.772C25.345,25.216 25.018,25.575 24.615,25.575L22.462,25.575C22.059,25.575 21.732,25.216 21.732,24.772L21.732,23.545C21.732,23.102 22.059,22.743 22.462,22.743L24.615,22.743C25.018,22.743 25.345,23.102 25.345,23.545ZM17.806,23.545L17.806,24.772C17.806,25.216 17.48,25.575 17.077,25.575L14.923,25.575C14.52,25.575 14.194,25.216 14.194,24.772L14.194,23.545C14.194,23.102 14.52,22.743 14.923,22.743L17.077,22.743C17.48,22.743 17.806,23.102 17.806,23.545ZM10.268,16.434L10.268,17.661C10.268,18.105 9.941,18.464 9.538,18.464L7.385,18.464C6.982,18.464 6.655,18.105 6.655,17.661L6.655,16.434C6.655,15.991 6.982,15.631 7.385,15.631L9.538,15.631C9.941,15.631 10.268,15.991 10.268,16.434ZM17.806,16.434L17.806,17.661C17.806,18.105 17.48,18.464 17.077,18.464L14.923,18.464C14.52,18.464 14.194,18.105 14.194,17.661L14.194,16.434C14.194,15.991 14.52,15.631 14.923,15.631L17.077,15.631C17.48,15.631 17.806,15.991 17.806,16.434Z"/>
    </g>
</svg>
