<?xml version="1.0" encoding="UTF-8" standalone="no"?>
<!DOCTYPE svg PUBLIC "-//W3C//DTD SVG 1.1//EN" "http://www.w3.org/Graphics/SVG/1.1/DTD/svg11.dtd">
<svg width="100%" height="100%" viewBox="0 0 32 32" version="1.1" xmlns="http://www.w3.org/2000/svg" xmlns:xlink="http://www.w3.org/1999/xlink" xml:space="preserve" xmlns:serif="http://www.serif.com/" style="fill-rule:evenodd;clip-rule:evenodd;stroke-linejoin:round;stroke-miterlimit:2;">
    <path d="M31,30.167C31.46,30.167 31.833,30.54 31.833,31C31.833,31.46 31.46,31.833 31,31.833L12.888,31.833C12.428,31.833 12.054,31.46 12.054,31C12.054,30.54 12.428,30.167 12.888,30.167L31,30.167ZM30.773,9.432L26.992,13.213L18.787,5.008L22.567,1.227C23.959,-0.164 26.217,-0.164 27.608,1.227L30.773,4.392C32.164,5.783 32.164,8.041 30.773,9.432ZM25.592,14.613L11.081,29.124C10.955,29.25 10.798,29.34 10.627,29.385L1.436,31.784C1.093,31.873 0.728,31.774 0.477,31.523C0.226,31.272 0.127,30.907 0.216,30.563L2.615,21.373C2.66,21.201 2.75,21.045 2.876,20.919L17.387,6.408L25.592,14.613ZM11,26.848L23.235,14.613L17.387,8.765L5.152,21L11,26.848ZM4.096,22.301L2.116,29.884L9.699,27.904L4.096,22.301Z"/>
</svg>
