<?xml version="1.0" encoding="UTF-8" standalone="no"?>
<!DOCTYPE svg PUBLIC "-//W3C//DTD SVG 1.1//EN" "http://www.w3.org/Graphics/SVG/1.1/DTD/svg11.dtd">
<svg width="100%" height="100%" viewBox="0 0 32 32" version="1.1" xmlns="http://www.w3.org/2000/svg" xmlns:xlink="http://www.w3.org/1999/xlink" xml:space="preserve" xmlns:serif="http://www.serif.com/" style="fill-rule:evenodd;clip-rule:evenodd;stroke-linejoin:round;stroke-miterlimit:2;">
    <g transform="matrix(0.0691598,0,0,0.0691598,-1.70492,-1.42828)">
        <path d="M256,20.652C350.766,20.652 427.704,97.59 427.704,192.356C427.704,287.121 256,483.348 256,483.348C256,483.348 84.296,287.121 84.296,192.356C84.296,97.59 161.234,20.652 256,20.652ZM256,43.244C173.703,43.244 106.889,110.059 106.889,192.356C106.889,217.877 121.677,251.267 141.099,285.968C176.638,349.466 229.227,415.962 256,448.346C282.773,415.962 335.362,349.466 370.901,285.968C390.323,251.267 405.111,217.877 405.111,192.356C405.111,110.059 338.297,43.244 256,43.244ZM256,118.704C295.901,118.704 328.296,151.099 328.296,191C328.296,230.901 295.901,263.296 256,263.296C216.099,263.296 183.704,230.901 183.704,191C183.704,151.099 216.099,118.704 256,118.704ZM256,141.296C228.568,141.296 206.296,163.568 206.296,191C206.296,218.432 228.568,240.704 256,240.704C283.432,240.704 305.704,218.432 305.704,191C305.704,163.568 283.432,141.296 256,141.296Z"/>
    </g>
</svg>
