<?xml version="1.0" encoding="UTF-8" standalone="no"?>
<!DOCTYPE svg PUBLIC "-//W3C//DTD SVG 1.1//EN" "http://www.w3.org/Graphics/SVG/1.1/DTD/svg11.dtd">
<svg width="100%" height="100%" viewBox="0 0 32 32" version="1.1" xmlns="http://www.w3.org/2000/svg" xmlns:xlink="http://www.w3.org/1999/xlink" xml:space="preserve" xmlns:serif="http://www.serif.com/" style="fill-rule:evenodd;clip-rule:evenodd;stroke-linejoin:round;stroke-miterlimit:2;">
    <path d="M16,0C24.831,0 32,7.169 32,16C32,24.831 24.831,32 16,32C7.169,32 0,24.831 0,16C0,7.169 7.169,0 16,0ZM16,1.667C8.089,1.667 1.667,8.089 1.667,16C1.667,23.911 8.089,30.333 16,30.333C23.911,30.333 30.333,23.911 30.333,16C30.333,8.089 23.911,1.667 16,1.667ZM11.736,11.209L23.736,7.209C24.036,7.11 24.366,7.188 24.589,7.411C24.812,7.634 24.89,7.964 24.791,8.264L20.791,20.264C20.708,20.512 20.512,20.708 20.264,20.791L8.264,24.791C7.964,24.89 7.634,24.812 7.411,24.589C7.188,24.366 7.11,24.036 7.209,23.736L11.209,11.736C11.292,11.488 11.488,11.292 11.736,11.209ZM12.659,12.659L9.318,22.682L19.341,19.341L22.682,9.318L12.659,12.659ZM16,14C17.104,14 18,14.896 18,16C18,17.104 17.104,18 16,18C14.896,18 14,17.104 14,16C14,14.896 14.896,14 16,14Z"/>
</svg>
