<?xml version="1.0" encoding="UTF-8" standalone="no"?>
<!DOCTYPE svg PUBLIC "-//W3C//DTD SVG 1.1//EN" "http://www.w3.org/Graphics/SVG/1.1/DTD/svg11.dtd">
<svg width="100%" height="100%" viewBox="0 0 512 512" version="1.1" xmlns="http://www.w3.org/2000/svg" xmlns:xlink="http://www.w3.org/1999/xlink" xml:space="preserve" xmlns:serif="http://www.serif.com/" style="fill-rule:evenodd;clip-rule:evenodd;stroke-linecap:round;stroke-linejoin:round;stroke-miterlimit:1.5;">
    <g transform="matrix(3.38482,0,0,3.38482,-4456.2,-1587.08)">
        <path d="M1331,614C1343,615 1380,554 1391,540C1393.58,536.716 1394.05,531.953 1397,529C1399.01,526.986 1402.93,527.957 1405,526C1415.46,516.108 1424.54,504.846 1434,494" style="fill:none;stroke:black;stroke-width:6.3px;"/>
    </g>
    <g transform="matrix(3.38482,0,0,3.38482,-4456.2,-1587.08)">
        <path d="M1456,475C1420,489 1401,482 1375,506C1347,531.846 1368.45,558.567 1363.79,579.233C1373.45,576.567 1408.43,582.406 1432,556C1451.64,533.997 1440.88,497 1456,475Z" style="fill:none;stroke:black;stroke-width:6.3px;"/>
    </g>
    <g transform="matrix(3.38482,0,0,3.38482,-4456.2,-1587.08)">
        <path d="M1415,538C1405.68,542.399 1397.31,543.508 1389.42,542.907" style="fill:none;stroke:black;stroke-width:4.73px;"/>
    </g>
    <g transform="matrix(3.38482,0,0,3.38482,-4456.2,-1587.08)">
        <path d="M1402.21,527.253C1404.42,520.87 1405,514.955 1402.21,510" style="fill:none;stroke:black;stroke-width:4.73px;"/>
    </g>
</svg>
