<?xml version="1.0" encoding="UTF-8" standalone="no"?>
<!DOCTYPE svg PUBLIC "-//W3C//DTD SVG 1.1//EN" "http://www.w3.org/Graphics/SVG/1.1/DTD/svg11.dtd">
<svg width="100%" height="100%" viewBox="0 0 32 32" version="1.1" xmlns="http://www.w3.org/2000/svg" xmlns:xlink="http://www.w3.org/1999/xlink" xml:space="preserve" xmlns:serif="http://www.serif.com/" style="fill-rule:evenodd;clip-rule:evenodd;stroke-linejoin:round;stroke-miterlimit:2;">
    <g transform="matrix(1.06667,0,0,1.06667,-1.06667,-1.06667)">
        <path d="M16,31C7.721,31 1,24.279 1,16C1,7.721 7.721,1 16,1C24.279,1 31,7.721 31,16C31,24.279 24.279,31 16,31ZM8.446,4.888C4.896,7.307 2.563,11.383 2.563,16C2.563,20.617 4.896,24.693 8.446,27.112C6.176,24.367 4.75,20.404 4.75,16C4.75,11.596 6.176,7.633 8.446,4.888ZM23.554,27.112C27.104,24.693 29.437,20.617 29.437,16C29.437,11.383 27.104,7.307 23.554,4.888C25.824,7.633 27.25,11.596 27.25,16C27.25,20.404 25.824,24.367 23.554,27.112ZM13.068,3.199C12.121,3.622 11.24,4.241 10.45,5.013C7.918,7.488 6.313,11.497 6.313,16C6.313,20.503 7.918,24.512 10.45,26.987C11.24,27.759 12.121,28.378 13.068,28.801C11.453,26.164 10.375,21.415 10.375,16C10.375,10.585 11.453,5.836 13.068,3.199ZM18.932,28.801C19.879,28.378 20.76,27.759 21.55,26.987C24.082,24.512 25.687,20.503 25.687,16C25.687,11.497 24.082,7.488 21.55,5.013C20.76,4.241 19.879,3.622 18.932,3.199C20.547,5.836 21.625,10.585 21.625,16C21.625,21.415 20.547,26.164 18.932,28.801ZM16,29.437C16.265,29.437 16.501,29.279 16.739,29.067C17.176,28.679 17.567,28.103 17.93,27.393C19.244,24.824 20.062,20.673 20.062,16C20.062,11.327 19.244,7.176 17.93,4.607C17.567,3.897 17.176,3.321 16.739,2.933C16.501,2.721 16.265,2.563 16,2.563C15.735,2.563 15.499,2.721 15.261,2.933C14.824,3.321 14.433,3.897 14.07,4.607C12.756,7.176 11.938,11.327 11.938,16C11.938,20.673 12.756,24.824 14.07,27.393C14.433,28.103 14.824,28.679 15.261,29.067C15.499,29.279 15.735,29.437 16,29.437Z"/>
    </g>
</svg>
