<?xml version="1.0" encoding="UTF-8" standalone="no"?>
<!DOCTYPE svg PUBLIC "-//W3C//DTD SVG 1.1//EN" "http://www.w3.org/Graphics/SVG/1.1/DTD/svg11.dtd">
<svg width="100%" height="100%" viewBox="0 0 32 32" version="1.1" xmlns="http://www.w3.org/2000/svg" xmlns:xlink="http://www.w3.org/1999/xlink" xml:space="preserve" xmlns:serif="http://www.serif.com/" style="fill-rule:evenodd;clip-rule:evenodd;stroke-linejoin:round;stroke-miterlimit:2;">
    <g transform="matrix(1,0,0,1,11,2.13163e-14)">
        <path d="M5,12C7.208,12 9,13.792 9,16C9,18.208 7.208,20 5,20C2.792,20 1,18.208 1,16C1,13.792 2.792,12 5,12ZM16,12C18.208,12 20,13.792 20,16C20,18.208 18.208,20 16,20C13.792,20 12,18.208 12,16C12,13.792 13.792,12 16,12ZM-6,12C-3.792,12 -2,13.792 -2,16C-2,18.208 -3.792,20 -6,20C-8.208,20 -10,18.208 -10,16C-10,13.792 -8.208,12 -6,12Z"/>
        <path d="M16,12C18.208,12 20,13.792 20,16C20,18.208 18.208,20 16,20C13.792,20 12,18.208 12,16C12,13.792 13.792,12 16,12ZM16,13.667C14.712,13.667 13.667,14.712 13.667,16C13.667,17.288 14.712,18.333 16,18.333C17.288,18.333 18.333,17.288 18.333,16C18.333,14.712 17.288,13.667 16,13.667ZM-6,12C-3.792,12 -2,13.792 -2,16C-2,18.208 -3.792,20 -6,20C-8.208,20 -10,18.208 -10,16C-10,13.792 -8.208,12 -6,12ZM-6,13.667C-7.288,13.667 -8.333,14.712 -8.333,16C-8.333,17.288 -7.288,18.333 -6,18.333C-4.712,18.333 -3.667,17.288 -3.667,16C-3.667,14.712 -4.712,13.667 -6,13.667ZM5,12C7.208,12 9,13.792 9,16C9,18.208 7.208,20 5,20C2.792,20 1,18.208 1,16C1,13.792 2.792,12 5,12ZM5,13.667C3.712,13.667 2.667,14.712 2.667,16C2.667,17.288 3.712,18.333 5,18.333C6.288,18.333 7.333,17.288 7.333,16C7.333,14.712 6.288,13.667 5,13.667Z"/>
    </g>
</svg>
