<?xml version="1.0" encoding="UTF-8" standalone="no"?>
<!DOCTYPE svg PUBLIC "-//W3C//DTD SVG 1.1//EN" "http://www.w3.org/Graphics/SVG/1.1/DTD/svg11.dtd">
<svg width="100%" height="100%" viewBox="0 0 32 32" version="1.1" xmlns="http://www.w3.org/2000/svg" xmlns:xlink="http://www.w3.org/1999/xlink" xml:space="preserve" xmlns:serif="http://www.serif.com/" style="fill-rule:evenodd;clip-rule:evenodd;stroke-linejoin:round;stroke-miterlimit:2;">
    <path d="M6.167,25.833L2,25.833C1.514,25.833 1.047,25.64 0.704,25.296C0.36,24.953 0.167,24.486 0.167,24L0.167,16C0.167,14.983 0.571,14.008 1.289,13.289C2.008,12.571 2.983,12.167 4,12.167L28,12.167C29.017,12.167 29.992,12.571 30.711,13.289C31.429,14.008 31.833,14.983 31.833,16L31.833,24C31.833,24.486 31.64,24.953 31.296,25.296C30.953,25.64 30.486,25.833 30,25.833L25.833,25.833L25.833,30C25.833,31.013 25.013,31.833 24,31.833L8,31.833C6.988,31.833 6.167,31.013 6.167,30L6.167,25.833ZM25.833,24.167L30,24.167C30.044,24.167 30.087,24.149 30.118,24.118C30.149,24.087 30.167,24.044 30.167,24L30.167,16C30.167,15.425 29.938,14.874 29.532,14.468C29.126,14.062 28.575,13.833 28,13.833L4,13.833C3.425,13.833 2.874,14.062 2.468,14.468C2.062,14.874 1.833,15.425 1.833,16L1.833,24C1.833,24.044 1.851,24.087 1.882,24.118C1.913,24.149 1.956,24.167 2,24.167L6.167,24.167L6.167,22C6.167,20.987 6.988,20.167 8,20.167L24,20.167C25.012,20.167 25.833,20.987 25.833,22L25.833,24.167ZM7.833,22L7.833,30C7.833,30.092 7.908,30.167 8,30.167L24,30.167C24.092,30.167 24.167,30.092 24.167,30L24.167,22C24.167,21.908 24.092,21.833 24,21.833L8,21.833C7.908,21.833 7.833,21.908 7.833,22ZM27,16C27.552,16 28,16.448 28,17C28,17.552 27.552,18 27,18C26.448,18 26,17.552 26,17C26,16.448 26.448,16 27,16ZM25.833,8C25.833,8.46 25.46,8.833 25,8.833C24.54,8.833 24.167,8.46 24.167,8L24.167,5.345L20.655,1.833L10,1.833C8.803,1.833 7.833,2.803 7.833,4L7.833,8C7.833,8.46 7.46,8.833 7,8.833C6.54,8.833 6.167,8.46 6.167,8L6.167,4C6.167,1.883 7.883,0.167 10,0.167L21,0.167C21.221,0.167 21.433,0.254 21.589,0.411L25.589,4.411C25.746,4.567 25.833,4.779 25.833,5L25.833,8Z"/>
</svg>
