<?xml version="1.0" encoding="UTF-8" standalone="no"?>
<!DOCTYPE svg PUBLIC "-//W3C//DTD SVG 1.1//EN" "http://www.w3.org/Graphics/SVG/1.1/DTD/svg11.dtd">
<svg width="100%" height="100%" viewBox="0 0 32 32" version="1.1" xmlns="http://www.w3.org/2000/svg" xmlns:xlink="http://www.w3.org/1999/xlink" xml:space="preserve" xmlns:serif="http://www.serif.com/" style="fill-rule:evenodd;clip-rule:evenodd;stroke-linejoin:round;stroke-miterlimit:2;">
    <path d="M21.464,22.643C19.205,24.629 16.242,25.833 13,25.833C5.917,25.833 0.167,20.083 0.167,13C0.167,5.917 5.917,0.167 13,0.167C20.083,0.167 25.833,5.917 25.833,13C25.833,16.242 24.629,19.205 22.643,21.464L31.589,30.411C31.914,30.736 31.914,31.264 31.589,31.589C31.264,31.914 30.736,31.914 30.411,31.589L21.464,22.643ZM20.894,20.894C22.916,18.873 24.167,16.082 24.167,13C24.167,6.837 19.163,1.833 13,1.833C6.837,1.833 1.833,6.837 1.833,13C1.833,19.163 6.837,24.167 13,24.167C16.082,24.167 18.873,22.916 20.894,20.894Z"/>
</svg>
