<?xml version="1.0" encoding="UTF-8" standalone="no"?>
<!DOCTYPE svg PUBLIC "-//W3C//DTD SVG 1.1//EN" "http://www.w3.org/Graphics/SVG/1.1/DTD/svg11.dtd">
<svg width="100%" height="100%" viewBox="0 0 32 32" version="1.1" xmlns="http://www.w3.org/2000/svg" xmlns:xlink="http://www.w3.org/1999/xlink" xml:space="preserve" xmlns:serif="http://www.serif.com/" style="fill-rule:evenodd;clip-rule:evenodd;stroke-linejoin:round;stroke-miterlimit:2;">
    <g transform="matrix(0.434036,0,0,0.434036,-415.19,-35.8646)">
        <path d="M998.847,83.029C999.892,83.192 1000.69,84.048 1000.78,85.102C1000.95,86.941 1001.19,89.793 1001.34,91.531C1001.42,92.429 1002.01,93.199 1002.86,93.502C1003.64,93.783 1004.41,94.101 1005.17,94.454C1005.98,94.839 1006.94,94.714 1007.63,94.135C1008.97,93.015 1011.16,91.171 1012.57,89.982C1013.38,89.299 1014.55,89.258 1015.41,89.883C1018.32,92.046 1020.89,94.621 1023.05,97.53C1023.67,98.384 1023.63,99.554 1022.95,100.364C1021.77,101.78 1019.92,103.97 1018.8,105.304C1018.22,105.994 1018.1,106.959 1018.48,107.773C1018.84,108.525 1019.15,109.294 1019.44,110.076C1019.74,110.924 1020.51,111.517 1021.41,111.594C1023.14,111.747 1026,111.992 1027.84,112.15C1028.89,112.241 1029.75,113.041 1029.92,114.089C1030.44,117.673 1030.44,121.314 1029.91,124.897C1029.75,125.942 1028.89,126.741 1027.84,126.831C1026,126.995 1023.14,127.24 1021.41,127.39C1020.51,127.467 1019.74,128.061 1019.44,128.91C1019.15,129.693 1018.84,130.462 1018.48,131.215C1018.1,132.029 1018.22,132.992 1018.8,133.681C1019.92,135.017 1021.77,137.208 1022.96,138.62C1023.64,139.431 1023.68,140.605 1023.06,141.462C1020.89,144.366 1018.32,146.941 1015.41,149.099C1014.55,149.723 1013.38,149.682 1012.57,149.001C1011.16,147.816 1008.97,145.973 1007.63,144.85C1006.94,144.27 1005.98,144.145 1005.16,144.531C1004.41,144.886 1003.64,145.205 1002.86,145.488C1002.01,145.791 1001.42,146.56 1001.34,147.457C1001.19,149.194 1000.95,152.046 1000.79,153.886C1000.7,154.943 999.896,155.802 998.848,155.966C995.264,156.49 991.623,156.49 988.04,155.959C986.995,155.795 986.197,154.939 986.106,153.885C985.942,152.046 985.697,149.194 985.547,147.457C985.47,146.559 984.876,145.788 984.027,145.485C983.244,145.205 982.475,144.886 981.722,144.533C980.908,144.148 979.945,144.273 979.256,144.853C977.92,145.973 975.73,147.816 974.317,149.005C973.506,149.689 972.333,149.73 971.475,149.105C968.571,146.941 965.996,144.366 963.838,141.458C963.215,140.603 963.255,139.433 963.937,138.624C965.121,137.208 966.964,135.017 968.087,133.683C968.667,132.993 968.792,132.029 968.406,131.214C968.051,130.462 967.733,129.693 967.449,128.911C967.146,128.063 966.377,127.47 965.48,127.393C963.743,127.24 960.891,126.995 959.052,126.837C957.994,126.747 957.136,125.946 956.971,124.898C956.448,121.314 956.448,117.673 956.978,114.091C957.142,113.045 957.998,112.247 959.052,112.156C960.891,111.992 963.743,111.747 965.48,111.598C966.378,111.52 967.149,110.926 967.452,110.077C967.733,109.294 968.051,108.525 968.404,107.772C968.789,106.959 968.664,105.995 968.085,105.306C966.964,103.97 965.121,101.78 963.932,100.367C963.249,99.556 963.207,98.383 963.832,97.525C965.996,94.621 968.571,92.046 971.479,89.888C972.334,89.265 973.504,89.306 974.314,89.987C975.73,91.171 977.92,93.015 979.254,94.137C979.944,94.718 980.909,94.842 981.723,94.456C982.475,94.101 983.244,93.783 984.026,93.5C984.874,93.197 985.467,92.427 985.544,91.53C985.697,89.793 985.942,86.941 986.1,85.102C986.191,84.045 986.991,83.186 988.039,83.022C991.623,82.498 995.264,82.498 998.847,83.029ZM960.085,123.661L965.759,124.153L967.312,124.516L968.673,125.287L969.765,126.407L970.511,127.812C970.759,128.496 971.037,129.168 971.346,129.822L971.815,131.347L971.835,132.912L971.418,134.42L970.576,135.777C969.599,136.938 968.074,138.75 966.916,140.132C968.629,142.335 970.609,144.315 972.802,146.029L977.162,142.364L978.517,141.523L980.025,141.106L981.589,141.125L983.109,141.592C983.768,141.9 984.44,142.178 985.121,142.422L986.532,143.169L987.652,144.262L988.424,145.623L988.788,147.178C988.918,148.69 989.121,151.049 989.279,152.845C992.048,153.191 994.849,153.191 997.611,152.852L998.102,147.178L998.466,145.625L999.237,144.264L1000.36,143.172L1001.76,142.426C1002.45,142.179 1003.12,141.9 1003.77,141.591L1005.3,141.122L1006.86,141.102L1008.37,141.519L1009.73,142.361C1010.89,143.338 1012.7,144.863 1014.08,146.022C1016.28,144.308 1018.26,142.328 1019.98,140.135L1016.31,135.775L1015.47,134.42L1015.06,132.912L1015.08,131.348L1015.54,129.828C1015.85,129.169 1016.13,128.497 1016.37,127.816L1017.12,126.406L1018.21,125.285L1019.57,124.513L1021.13,124.149C1022.64,124.019 1025,123.816 1026.8,123.658C1027.14,120.889 1027.14,118.088 1026.8,115.326L1021.13,114.835L1019.58,114.471L1018.21,113.7L1017.12,112.581L1016.38,111.175C1016.13,110.492 1015.85,109.82 1015.54,109.166L1015.07,107.64L1015.05,106.075L1015.47,104.567L1016.31,103.21C1017.29,102.049 1018.81,100.237 1019.97,98.855C1018.26,96.653 1016.28,94.672 1014.09,92.959L1009.73,96.623L1008.37,97.465L1006.86,97.882L1005.3,97.862L1003.78,97.396C1003.12,97.088 1002.45,96.809 1001.77,96.565L1000.36,95.818L999.235,94.726L998.463,93.364L998.099,91.81C997.969,90.298 997.766,87.938 997.608,86.142C994.839,85.796 992.038,85.796 989.276,86.135L988.785,91.809L988.421,93.362L987.65,94.723L986.53,95.815L985.125,96.561C984.442,96.809 983.769,97.087 983.115,97.396L981.59,97.865L980.025,97.885L978.517,97.468L977.16,96.626C975.999,95.649 974.187,94.124 972.805,92.966C970.602,94.679 968.622,96.66 966.909,98.852L970.573,103.212L971.415,104.567L971.832,106.075L971.812,107.639L971.346,109.16C971.038,109.818 970.759,110.491 970.515,111.171L969.768,112.582L968.676,113.702L967.314,114.474L965.76,114.838C964.247,114.968 961.888,115.171 960.092,115.329C959.746,118.098 959.746,120.899 960.085,123.661ZM993.444,107.025C1000.33,107.025 1005.91,112.612 1005.91,119.494C1005.91,126.375 1000.33,131.962 993.444,131.962C986.562,131.962 980.975,126.375 980.975,119.494C980.975,112.612 986.562,107.025 993.444,107.025ZM993.444,110.278C988.357,110.278 984.228,114.407 984.228,119.494C984.228,124.58 988.357,128.71 993.444,128.71C998.53,128.71 1002.66,124.58 1002.66,119.494C1002.66,114.407 998.53,110.278 993.444,110.278Z"/>
    </g>
</svg>
