<?xml version="1.0" encoding="UTF-8" standalone="no"?>
<!DOCTYPE svg PUBLIC "-//W3C//DTD SVG 1.1//EN" "http://www.w3.org/Graphics/SVG/1.1/DTD/svg11.dtd">
<svg width="100%" height="100%" viewBox="0 0 32 32" version="1.1" xmlns="http://www.w3.org/2000/svg" xmlns:xlink="http://www.w3.org/1999/xlink" xml:space="preserve" xmlns:serif="http://www.serif.com/" style="fill-rule:evenodd;clip-rule:evenodd;stroke-linejoin:round;stroke-miterlimit:2;">
    <g transform="matrix(-1.01015,-1.01015,-0.67991,0.67991,46.128,22.2376)">
        <path d="M11,27.88L11,7.137C11,6.386 13.472,2.414 15.478,-0.685C16.138,-1.704 17.048,-2.28 18,-2.28C18.952,-2.28 19.862,-1.704 20.522,-0.685C22.528,2.414 25,6.386 25,7.137C25,7.137 25,27.88 25,27.88C25,29.602 24.059,31 22.9,31L13.1,31C11.941,31 11,29.602 11,27.88ZM23.833,27.88L23.833,8.266C23.833,7.775 23.717,7.3 23.504,6.924C22.737,5.577 20.984,2.529 19.681,0.516C19.241,-0.163 18.634,-0.547 18,-0.547C17.366,-0.547 16.759,-0.163 16.319,0.516C15.016,2.529 13.263,5.577 12.497,6.925C12.284,7.3 12.167,7.775 12.167,8.266C12.167,11.959 12.167,27.88 12.167,27.88C12.167,28.645 12.585,29.267 13.1,29.267L22.9,29.267C23.415,29.267 23.833,28.645 23.833,27.88ZM18,3.093C19.095,3.093 19.983,4.414 19.983,6.04C19.983,7.666 19.095,8.987 18,8.987C16.905,8.987 16.017,7.666 16.017,6.04C16.017,4.414 16.905,3.093 18,3.093ZM18,4.827C17.549,4.827 17.183,5.37 17.183,6.04C17.183,6.71 17.549,7.253 18,7.253C18.451,7.253 18.817,6.71 18.817,6.04C18.817,5.37 18.451,4.827 18,4.827Z"/>
    </g>
</svg>
