<?xml version="1.0" encoding="UTF-8" standalone="no"?>
<!DOCTYPE svg PUBLIC "-//W3C//DTD SVG 1.1//EN" "http://www.w3.org/Graphics/SVG/1.1/DTD/svg11.dtd">
<svg width="100%" height="100%" viewBox="0 0 32 25" version="1.1" xmlns="http://www.w3.org/2000/svg" xmlns:xlink="http://www.w3.org/1999/xlink" xml:space="preserve" xmlns:serif="http://www.serif.com/" style="fill-rule:evenodd;clip-rule:evenodd;stroke-linecap:round;stroke-linejoin:round;stroke-miterlimit:1.5;">
    <g transform="matrix(0.0618203,0.035692,-0.035692,0.0618203,-6.07683,-68.1484)">
        <g>
            <path d="M994,655C996.667,657 988.667,673.667 988,680C987.541,684.36 991.469,688.869 990,693C987.333,700.5 981.129,716.849 972,725C962.667,733.333 939.333,748.167 934,743C928.667,737.833 933.667,706.5 940,694C946.212,681.74 963,674.5 972,668C978.905,663.013 991.333,653 994,655Z" style="fill:rgb(134,127,87);stroke:black;stroke-width:1px;"/>
            <path d="M994,768C993.5,765.333 983.394,765.586 978,765C970.333,764.167 957.049,758.691 948,763C937.5,768 916.333,788.333 915,795C913.667,801.667 931.423,802.667 940,803C948.577,803.333 959.628,800.667 966.461,797C972.811,793.593 976.41,785.833 981,781C985.22,776.556 994.5,770.667 994,768Z" style="fill:rgb(134,127,87);stroke:black;stroke-width:1px;"/>
            <path d="M980,864C981.077,861.833 970.711,856.833 966.461,853C962.268,849.217 959.323,843.939 954.5,841C948.756,837.5 940.027,832.9 932,832C923.083,831 909,832.333 901,835C894.232,837.256 885.167,844.333 884,848C882.833,851.667 890.181,854.65 894,857C900.5,861 914.5,869.667 923,872C930.079,873.943 938.833,872 945,871C950.203,870.156 954.832,867.034 960,866C965.833,864.833 978.923,866.167 980,864Z" style="fill:rgb(134,127,87);stroke:black;stroke-width:1px;"/>
            <path d="M934,913C934,910.667 921.167,906.167 915,903C909.033,899.936 898.809,894.442 897,894C895.191,893.558 875.167,892.167 867,894C859.86,895.603 853.333,901.167 848,905C843.211,908.442 834,912.667 835,917C836,921.333 846.588,928.364 854,931C861.5,933.667 872.333,933.333 880,933C886.792,932.705 894.167,931.667 900,929C905.823,926.338 909.333,919.667 915,917C920.667,914.333 934,915.333 934,913Z" style="fill:rgb(134,127,87);stroke:black;stroke-width:1px;"/>
            <path d="M802,972C803.667,968 815.169,961.918 823,960C831.167,958 843.833,957.833 851,960C857.333,961.915 861.48,968.168 866,973C870.833,978.167 876.917,987.167 880,991C881.405,992.747 886.712,995.631 884.5,996C881.5,996.5 868.75,993.833 862,994C855.919,994.15 849.833,997 844,997C838.246,997 832.167,996.167 827,994C821.833,991.833 817.167,987.667 813,984C808.926,980.415 800.333,976 802,972Z" style="fill:rgb(134,127,87);stroke:black;stroke-width:1px;"/>
            <path d="M744,977C749,979 748.779,965.712 751,960C753.333,954 757.741,947.744 758,941C758.333,932.333 755.667,915.866 753,908C751.078,902.33 745.514,898.65 742,893.804C737.167,887.137 728,868.467 724,868C720,867.533 719.849,883.296 718,891C716,899.333 711.515,908.793 712,918C712.5,927.5 716.022,938.823 721,948C726.333,957.833 739,975 744,977Z" style="fill:rgb(134,127,87);stroke:black;stroke-width:1px;"/>
            <path d="M796.5,907C800.5,904.833 802.41,891.872 802,884C801.583,876 797.5,866 794,859C790.81,852.619 785.833,846.167 781,842C776.484,838.107 770.219,836.884 765,834C758.667,830.5 745.333,820 743,821C740.667,822 749.5,833.833 751,840C752.42,845.839 750.833,853.667 752,858C752.867,861.219 757,863 758,866C759,869 756.193,873.199 758,876C761.333,881.167 771.583,891.833 778,897C783.46,901.396 792.5,909.167 796.5,907Z" style="fill:rgb(134,127,87);stroke:black;stroke-width:1px;"/>
            <path d="M802,806C803.667,802.5 800.087,791.5 797,785C793.833,778.333 787.833,771.167 783,766C778.626,761.324 773.333,757 768,754C762.762,751.054 756.983,748.564 751,748C742.167,747.167 719,746.833 715,749C711,751.167 723.862,756.293 727,761C731,767 736.333,779.333 739,785C740.529,788.248 740.048,792.956 743,795C747.333,798 757.667,801.167 765,803C772.18,804.795 780.833,805.5 787,806C791.984,806.404 800.333,809.5 802,806Z" style="fill:rgb(134,127,87);stroke:black;stroke-width:1px;"/>
            <path d="M867,812C872.167,814.167 875.5,800.572 878,794C880.917,786.333 884.167,773.667 884.5,766C884.769,759.821 882.417,753.667 880,748C877.583,742.333 872.167,730.5 870,732C867.833,733.5 869.5,750.167 867,757C864.709,763.261 858.333,769 855,773C852.586,775.897 845.891,777.396 847,781C849,787.5 861.833,809.833 867,812Z" style="fill:rgb(134,127,87);stroke:black;stroke-width:1px;"/>
            <path d="M807,734C809.833,736.667 813.396,722.859 816,717C818.667,711 822.835,704.747 823,698C823.167,691.167 819.333,682.667 817,676C814.831,669.803 812,657.5 809,658C806,658.5 800.667,671.833 799,679C797.339,686.143 797.944,693.743 799,701C800.333,710.167 804.167,731.333 807,734Z" style="fill:rgb(134,127,87);stroke:black;stroke-width:1px;"/>
            <path d="M801.788,737C802.955,734.667 800.787,725.457 799,720C797.035,714 793.667,706.833 790,701C786.343,695.182 782.516,689.098 777,685C771.167,680.667 757.667,674 755,675C752.333,676 759.667,685.833 761,691C762.26,695.884 761.03,701.356 763,706C765.333,711.5 770.167,719.333 775,724C779.73,728.567 787.535,731.833 792,734C795.07,735.49 800.622,739.333 801.788,737Z" style="fill:rgb(134,127,87);stroke:black;stroke-width:1px;"/>
            <path d="M829,791C830.902,792 838.413,784.665 843.41,782C848.41,779.333 855.213,779.255 859,775C863.598,769.833 869,757.833 871,751C872.592,745.561 871.833,738.833 871,734C870.264,729.73 867.274,726.142 866,722C864.667,717.667 863.667,711.667 863,708C862.519,705.356 863.979,698.182 862,700C858.735,703 848.077,718.667 843.41,726C839.775,731.712 836.488,737.703 834,744C831.432,750.5 828.333,759.667 828,765C827.757,768.894 831.85,772.101 832,776C832.167,780.333 827.098,790 829,791Z" style="fill:rgb(134,127,87);stroke:black;stroke-width:1px;"/>
            <path d="M935,743C897.722,799.566 854.297,846.253 825.503,897.67C783.643,972.42 742.073,1016.51 701,1047" style="fill:none;stroke:black;stroke-width:1px;"/>
            <path d="M744.962,977.203C743.688,991.998 737.804,1008.02 727.666,1025.18" style="fill:none;stroke:black;stroke-width:1px;"/>
            <path d="M802.118,971.745C789.557,971.515 776.285,976.737 761.952,990.096" style="fill:none;stroke:black;stroke-width:1px;"/>
            <path d="M797.605,906.079C801.903,918.345 801.81,931.161 796.655,944.609" style="fill:none;stroke:black;stroke-width:1px;"/>
            <path d="M834.966,916.833C819.921,920.491 810.07,927.613 802.118,936" style="fill:none;stroke:black;stroke-width:1px;"/>
            <path d="M884.462,848C864.453,850.87 849.019,864.72 834.925,881.786" style="fill:none;stroke:black;stroke-width:1px;"/>
            <path d="M914.929,795.696C904.439,798.845 893.096,806.265 881.094,816.977" style="fill:none;stroke:black;stroke-width:1px;"/>
            <path d="M868.671,812.166C869.751,823.851 866.337,836.163 859.098,846.335" style="fill:none;stroke:black;stroke-width:1px;"/>
            <path d="M802,738C818.988,773.481 826.326,827.322 819.089,908.89" style="fill:none;stroke:black;stroke-width:1px;"/>
            <path d="M807.75,734.338C806.498,740.223 807.483,748.083 809.523,756.873" style="fill:none;stroke:black;stroke-width:1px;"/>
            <path d="M802,806C812.504,812.7 819.513,822.895 821.698,837.914" style="fill:none;stroke:black;stroke-width:1px;"/>
            <path d="M829.425,791.093C825.017,796.718 822.152,806.006 820.769,818.816" style="fill:none;stroke:black;stroke-width:1px;"/>
            <path d="M728,891C728.667,897.333 728.834,905.333 730,910C730.832,913.329 734.035,915.706 734.996,919C736.163,923 735.999,929.5 737,934C737.915,938.116 740.167,942.167 741,946C741.782,949.598 741.84,953.322 742,957C742.167,960.833 741.506,965.633 742,969C742.422,971.876 743.975,974.469 744.962,977.203" style="fill:none;stroke:black;stroke-width:0.5px;"/>
            <path d="M719,916C721.333,919.333 723.833,922.983 726,926C727.96,928.73 730.161,932.751 732,934.102C733.353,935.095 735.356,934.102 737.034,934.102" style="fill:none;stroke:black;stroke-width:0.5px;"/>
            <path d="M746,916C744.333,919.667 742,923.333 741,927C740.031,930.552 740.216,935.483 740,938C739.883,939.367 739.801,940.737 739.702,942.105" style="fill:none;stroke:black;stroke-width:0.5px;"/>
            <path d="M731,942.105C732.827,943.737 735.026,945.029 736.481,947C738.315,949.483 740.16,953.667 742,957" style="fill:none;stroke:black;stroke-width:0.5px;"/>
            <path d="M797,906C796,902.333 795.287,898.576 794,895C792.5,890.833 789.667,884.667 788,881C786.766,878.286 786.457,874.689 784,873C781.333,871.167 776,871 772,870" style="fill:none;stroke:black;stroke-width:0.5px;"/>
            <path d="M766,847C769,851.333 772.5,856.5 775,860C776.937,862.712 779.5,865.833 781,868C782.106,869.598 783,871.333 784,873" style="fill:none;stroke:black;stroke-width:0.5px;"/>
            <path d="M802.424,803.525C793.283,796.35 780.404,787.421 775,782C772.156,779.148 771.468,774.751 770,771C768.5,767.167 767.333,763 766,759" style="fill:none;stroke:black;stroke-width:0.5px;"/>
            <path d="M730,757C736.667,760.667 745,764.833 750,768C753.606,770.284 756.24,773.978 760,776C764.111,778.21 770.12,780.254 775.008,782.008" style="fill:none;stroke:black;stroke-width:0.5px;"/>
            <path d="M774.665,789C766.507,787.111 758.553,786.653 751,789" style="fill:none;stroke:black;stroke-width:0.5px;"/>
            <path d="M768,686C770.222,689.667 772.682,693.199 774.665,697C776.665,700.833 778.409,705 780,709C781.567,712.939 781.712,717.667 784.212,721C786.712,724.333 792.297,726.211 795,729C797.385,731.462 798.618,734.823 800.427,737.734" style="fill:none;stroke:black;stroke-width:0.5px;"/>
            <path d="M811.528,660.283C811.181,663.855 810.622,667.413 810.487,671C810.314,675.62 810.246,685.683 810.487,688C810.728,690.317 812.248,695.947 812,699C811.787,701.627 809.667,703.817 809,706.317C808.335,708.812 808.333,711.439 808,714" style="fill:none;stroke:black;stroke-width:0.5px;"/>
            <path d="M831.999,775.972C834.999,773.314 839.65,768.826 841,768C842.35,767.174 848.92,758.581 849.96,756C851,753.419 855.895,733.695 856,732C856.105,730.305 856,722 856,717" style="fill:none;stroke:black;stroke-width:0.5px;"/>
            <path d="M865.699,811.174C866.755,807.783 868.5,804.533 868.867,801C869.25,797.304 868.814,792.5 868,789C867.256,785.8 864.652,782.825 863.982,780C863.371,777.422 863.982,774.7 863.982,772.051" style="fill:none;stroke:black;stroke-width:0.5px;"/>
            <path d="M986,669C979.667,677.667 973.167,686.333 967,695C960.889,703.589 953.5,714.5 949,721C946,725.333 942.333,730.333 940,734C938.158,736.895 936.667,740 935,743" style="fill:none;stroke:black;stroke-width:0.5px;"/>
            <path d="M977,706C973.667,708 970.167,710.5 967,712C964.142,713.354 960.687,713.952 958,715C955.563,715.951 953.251,717.193 950.876,718.29" style="fill:none;stroke:black;stroke-width:0.5px;"/>
            <path d="M960.5,682C959,687 956.535,692.495 956,697C955.524,701.004 956.859,705.019 957.288,709.028" style="fill:none;stroke:black;stroke-width:0.5px;"/>
            <path d="M977,772.051C974,774.034 971.414,776.87 968,778C964.5,779.158 959.333,778.167 956,779C953.108,779.723 950.5,782.333 948,783C945.745,783.601 943.248,782.375 941,783C938,783.833 933.703,786.415 930,788C925.717,789.834 920.203,792.002 915.304,794.003" style="fill:none;stroke:black;stroke-width:0.5px;"/>
            <path d="M884.462,848C891.975,848 901.922,847.667 907,848C909.72,848.179 912.786,848.316 914.929,850C917.262,851.833 918.821,856.518 921,859C923.012,861.292 925.667,862.929 928,864.893" style="fill:none;stroke:black;stroke-width:0.5px;"/>
            <path d="M970,862C965.667,860.149 961.167,857.372 957,856.447C953.095,855.579 948.667,857.521 945,856.447C941.333,855.372 938.333,850.908 935,850C931.768,849.12 928.283,850.907 925,851C921.766,851.091 918.18,850.163 914.948,850.015" style="fill:none;stroke:black;stroke-width:0.5px;"/>
            <path d="M942.652,843C940.435,844 937.275,844.833 936,846C934.986,846.928 935.333,848.667 935,850" style="fill:none;stroke:black;stroke-width:0.5px;"/>
            <path d="M933,839C930.667,840.333 928,841.75 926,843C924.275,844.078 922.885,845.734 921,846.5C918.522,847.507 913.509,847.431 910.219,848.278" style="fill:none;stroke:black;stroke-width:0.5px;"/>
            <path d="M802.118,971.738L816,971.738C821.314,971.738 830.833,970.694 834,971.738C836.008,972.4 833.5,977.123 835,978C836.5,978.877 840.333,976.833 843,977C845.667,977.167 848.493,977.872 851,979C854.333,980.5 859.833,983.833 863,986C865.536,987.735 867.667,990 870,992" style="fill:none;stroke:black;stroke-width:0.5px;"/>
            <path d="M845,916C847.667,915.333 850.376,914.82 853,914C855.667,913.167 858.228,911.652 861,911C863.833,910.333 866.997,910.3 870,910C873.333,909.667 877.667,909.5 881,909C884.039,908.544 886.972,906.473 890,907C893.833,907.667 899.783,911.833 904,913C907.646,914.009 911.536,913.667 915.304,914" style="fill:none;stroke:black;stroke-width:0.5px;"/>
            <path d="M884,898C881.333,901 878.333,905 876,907C874.302,908.455 872,909 870,910" style="fill:none;stroke:black;stroke-width:0.5px;"/>
            <path d="M886,927C880.667,923.333 874.389,918.583 870,916C866.762,914.094 863.111,913 859.667,911.5" style="fill:none;stroke:black;stroke-width:0.5px;"/>
        </g>
    </g>
</svg>
